<svg width="720" height="720" viewBox="0 0 720 720" fill="none" xmlns="http://www.w3.org/2000/svg">
<line x1="548" y1="370" x2="548" y2="570" stroke="black" stroke-width="4"/>
<line x1="611.054" y1="307.414" x2="547.414" y2="371.054" stroke="black" stroke-width="4"/>
<line x1="610" y1="159" x2="610" y2="309" stroke="black" stroke-width="4"/>
<line x1="630.627" y1="139.414" x2="609.414" y2="160.627" stroke="black" stroke-width="4"/>
<line x1="630" y1="91" x2="630" y2="141" stroke="black" stroke-width="4"/>
<line x1="573" y1="175" x2="573" y2="235" stroke="black" stroke-width="4"/>
<line x1="600.698" y1="148.414" x2="572.414" y2="176.698" stroke="black" stroke-width="4"/>
<path d="M600 99.3333C594.109 99.3333 589.333 104.109 589.333 110C589.333 115.891 594.109 120.667 600 120.667C605.891 120.667 610.667 115.891 610.667 110C610.667 104.109 605.891 99.3333 600 99.3333ZM600 110H598V150H600H602V110H600Z" fill="black"/>
<path d="M529.542 318.671C525.377 314.505 518.623 314.505 514.457 318.671C510.292 322.836 510.292 329.59 514.457 333.756C518.623 337.921 525.377 337.921 529.542 333.756C533.708 329.59 533.708 322.836 529.542 318.671ZM543.213 305L541.799 303.586L520.585 324.799L522 326.213L523.414 327.627L544.627 306.414L543.213 305Z" fill="black"/>
<line x1="543" y1="176" x2="543" y2="306" stroke="black" stroke-width="4"/>
<line x1="570.698" y1="149.414" x2="542.414" y2="177.698" stroke="black" stroke-width="4"/>
<line x1="570" y1="91" x2="570" y2="151" stroke="black" stroke-width="4"/>
<path d="M540 100.333C534.109 100.333 529.333 105.109 529.333 111C529.333 116.891 534.109 121.667 540 121.667C545.891 121.667 550.667 116.891 550.667 111C550.667 105.109 545.891 100.333 540 100.333ZM540 130.333C534.109 130.333 529.333 135.109 529.333 141C529.333 146.891 534.109 151.667 540 151.667C545.891 151.667 550.667 146.891 550.667 141C550.667 135.109 545.891 130.333 540 130.333ZM540 111H538V141H540H542V111H540Z" fill="black"/>
<path d="M483 335.333C477.109 335.333 472.333 340.109 472.333 346C472.333 351.891 477.109 356.667 483 356.667C488.891 356.667 493.667 351.891 493.667 346C493.667 340.109 488.891 335.333 483 335.333ZM483 176H481V346H483H485V176H483Z" fill="black"/>
<line x1="510.698" y1="149.414" x2="482.414" y2="177.698" stroke="black" stroke-width="4"/>
<line x1="510" y1="91" x2="510" y2="151" stroke="black" stroke-width="4"/>
<path d="M463 441.333C457.109 441.333 452.333 446.109 452.333 452C452.333 457.891 457.109 462.667 463 462.667C468.891 462.667 473.667 457.891 473.667 452C473.667 446.109 468.891 441.333 463 441.333ZM463 541.333C457.109 541.333 452.333 546.109 452.333 552C452.333 557.891 457.109 562.667 463 562.667C468.891 562.667 473.667 557.891 473.667 552C473.667 546.109 468.891 541.333 463 541.333ZM463 452H461V552H463H465V452H463Z" fill="black"/>
<path d="M478.097 663.097C473.932 667.263 473.932 674.016 478.097 678.182C482.263 682.348 489.016 682.348 493.182 678.182C497.348 674.016 497.348 667.263 493.182 663.097C489.016 658.932 482.263 658.932 478.097 663.097ZM422 607L420.586 608.414L484.225 672.054L485.64 670.64L487.054 669.225L423.414 605.586L422 607Z" fill="black"/>
<line x1="422" y1="428" x2="422" y2="608" stroke="black" stroke-width="4"/>
<path d="M464.898 386.458C460.732 382.292 453.979 382.292 449.813 386.458C445.647 390.623 445.647 397.377 449.813 401.542C453.979 405.708 460.732 405.708 464.898 401.542C469.064 397.377 469.064 390.623 464.898 386.458ZM457.355 394L455.941 392.586L420.586 427.941L422 429.355L423.414 430.77L458.77 395.414L457.355 394Z" fill="black"/>
<path d="M440.955 665.955C436.789 670.121 436.789 676.874 440.955 681.04C445.121 685.206 451.874 685.206 456.04 681.04C460.206 676.874 460.206 670.121 456.04 665.955C451.874 661.789 445.121 661.789 440.955 665.955ZM399 624L397.586 625.414L447.083 674.912L448.497 673.497L449.912 672.083L400.414 622.586L399 624Z" fill="black"/>
<line x1="399" y1="385" x2="399" y2="625" stroke="black" stroke-width="4"/>
<path d="M448.969 336.458C444.804 332.292 438.05 332.292 433.884 336.458C429.719 340.623 429.719 347.377 433.884 351.542C438.05 355.708 444.804 355.708 448.969 351.542C453.135 347.377 453.135 340.623 448.969 336.458ZM441.427 344L440.013 342.586L397.586 385.012L399 386.426L400.415 387.841L442.841 345.414L441.427 344Z" fill="black"/>
<path d="M429.542 280.742C425.377 276.576 418.623 276.576 414.457 280.742C410.292 284.907 410.292 291.661 414.457 295.827C418.623 299.992 425.377 299.992 429.542 295.827C433.708 291.661 433.708 284.907 429.542 280.742ZM450.284 260L448.87 258.586L420.586 286.87L422 288.284L423.414 289.698L451.698 261.414L450.284 260Z" fill="black"/>
<line x1="450" y1="91" x2="450" y2="261" stroke="black" stroke-width="4"/>
<path d="M419 100.333C413.109 100.333 408.333 105.109 408.333 111C408.333 116.891 413.109 121.667 419 121.667C424.891 121.667 429.667 116.891 429.667 111C429.667 105.109 424.891 100.333 419 100.333ZM419 230.333C413.109 230.333 408.333 235.109 408.333 241C408.333 246.891 413.109 251.667 419 251.667C424.891 251.667 429.667 246.891 429.667 241C429.667 235.109 424.891 230.333 419 230.333ZM419 111H417V241H419H421V111H419Z" fill="black"/>
<path d="M383 668.333C377.109 668.333 372.333 673.109 372.333 679C372.333 684.891 377.109 689.667 383 689.667C388.891 689.667 393.667 684.891 393.667 679C393.667 673.109 388.891 668.333 383 668.333ZM383 629H381V679H383H385V629H383Z" fill="black"/>
<line x1="355.414" y1="601.586" x2="383.698" y2="629.87" stroke="black" stroke-width="4"/>
<line x1="356" y1="393" x2="356" y2="603" stroke="black" stroke-width="4"/>
<line x1="390.77" y1="359.414" x2="355.414" y2="394.77" stroke="black" stroke-width="4"/>
<line x1="390" y1="91" x2="390" y2="361" stroke="black" stroke-width="4"/>
<path d="M342.671 631.671C338.505 635.836 338.505 642.59 342.671 646.756C346.836 650.921 353.59 650.921 357.756 646.756C361.921 642.59 361.921 635.836 357.756 631.671C353.59 627.505 346.836 627.505 342.671 631.671ZM329 618L327.586 619.414L348.799 640.627L350.213 639.213L351.627 637.799L330.414 616.586L329 618Z" fill="black"/>
<line x1="330" y1="389" x2="330" y2="619" stroke="black" stroke-width="4"/>
<line x1="371.841" y1="348.414" x2="329.415" y2="390.841" stroke="black" stroke-width="4"/>
<line x1="371" y1="210" x2="371" y2="350" stroke="black" stroke-width="4"/>
<line x1="329.414" y1="169.586" x2="371.841" y2="212.012" stroke="black" stroke-width="4"/>
<line x1="330" y1="91" x2="330" y2="171" stroke="black" stroke-width="4"/>
<path d="M340.969 336.969C345.135 332.803 345.135 326.049 340.969 321.884C336.804 317.718 330.05 317.718 325.884 321.884C321.719 326.049 321.719 332.803 325.884 336.969C330.05 341.134 336.804 341.134 340.969 336.969ZM333.427 329.426L334.841 328.012L292.415 285.586L291 287L289.586 288.414L332.013 330.84L333.427 329.426Z" fill="black"/>
<path d="M292 197.333C286.109 197.333 281.333 202.109 281.333 208C281.333 213.891 286.109 218.667 292 218.667C297.891 218.667 302.667 213.891 302.667 208C302.667 202.109 297.891 197.333 292 197.333ZM292 208H290V288H292H294V208H292Z" fill="black"/>
<path d="M316.969 372.969C321.135 368.803 321.135 362.049 316.969 357.884C312.804 353.718 306.05 353.718 301.884 357.884C297.719 362.049 297.719 368.803 301.884 372.969C306.05 377.134 312.804 377.134 316.969 372.969ZM309.427 365.426L310.841 364.012L268.415 321.586L267 323L265.586 324.414L308.013 366.84L309.427 365.426Z" fill="black"/>
<line x1="267.986" y1="183.992" x2="267.986" y2="323.992" stroke="black" stroke-width="4"/>
<line x1="288.627" y1="164.414" x2="267.414" y2="185.627" stroke="black" stroke-width="4"/>
<path d="M288 135.333C282.109 135.333 277.333 140.109 277.333 146C277.333 151.891 282.109 156.667 288 156.667C293.891 156.667 298.667 151.891 298.667 146C298.667 140.109 293.891 135.333 288 135.333ZM288 146H286V166H288H290V146H288Z" fill="black"/>
<path d="M298.542 632.671C294.377 628.505 287.623 628.505 283.457 632.671C279.292 636.836 279.292 643.59 283.457 647.756C287.623 651.921 294.377 651.921 298.542 647.756C302.708 643.59 302.708 636.836 298.542 632.671ZM312.213 619L310.799 617.586L289.585 638.799L291 640.213L292.414 641.627L313.627 620.414L312.213 619Z" fill="black"/>
<line x1="312" y1="450" x2="312" y2="620" stroke="black" stroke-width="4"/>
<line x1="249.414" y1="387.586" x2="313.054" y2="451.225" stroke="black" stroke-width="4"/>
<line x1="250" y1="139" x2="250" y2="389" stroke="black" stroke-width="4"/>
<line x1="270.627" y1="119.414" x2="249.414" y2="140.627" stroke="black" stroke-width="4"/>
<line x1="270" y1="91" x2="270" y2="121" stroke="black" stroke-width="4"/>
<path d="M267.957 634.227C263.791 630.061 257.037 630.061 252.872 634.227C248.706 638.393 248.706 645.146 252.872 649.312C257.037 653.477 263.791 653.477 267.957 649.312C272.122 645.146 272.122 638.393 267.957 634.227ZM295.77 606.414L294.355 605L259 640.355L260.414 641.769L261.828 643.184L297.184 607.828L295.77 606.414Z" fill="black"/>
<line x1="295" y1="488" x2="295" y2="608" stroke="black" stroke-width="4"/>
<line x1="196.414" y1="390.586" x2="295.409" y2="489.581" stroke="black" stroke-width="4"/>
<line x1="197" y1="142" x2="197" y2="392" stroke="black" stroke-width="4"/>
<line x1="210.556" y1="129.414" x2="196.414" y2="143.556" stroke="black" stroke-width="4"/>
<line x1="210" y1="91" x2="210" y2="131" stroke="black" stroke-width="4"/>
<path d="M170 349.333C164.109 349.333 159.333 354.109 159.333 360C159.333 365.891 164.109 370.667 170 370.667C175.891 370.667 180.667 365.891 180.667 360C180.667 354.109 175.891 349.333 170 349.333ZM170 200H168V360H170H172V200H170Z" fill="black"/>
<line x1="149.414" y1="179.586" x2="170.627" y2="200.799" stroke="black" stroke-width="4"/>
<line x1="150" y1="91" x2="150" y2="181" stroke="black" stroke-width="4"/>
<path d="M141 327.333C135.109 327.333 130.333 332.109 130.333 338C130.333 343.891 135.109 348.667 141 348.667C146.891 348.667 151.667 343.891 151.667 338C151.667 332.109 146.891 327.333 141 327.333ZM141 198H139L139 338H141H143L143 198H141Z" fill="black"/>
<line x1="120.414" y1="178.586" x2="141.627" y2="199.799" stroke="black" stroke-width="4"/>
<path d="M121 99.3333C115.109 99.3333 110.333 104.109 110.333 110C110.333 115.891 115.109 120.667 121 120.667C126.891 120.667 131.667 115.891 131.667 110C131.667 104.109 126.891 99.3333 121 99.3333ZM121 110H119V180H121H123V110H121Z" fill="black"/>
<line x1="124" y1="434" x2="124" y2="485" stroke="black" stroke-width="4"/>
<line x1="89.4142" y1="399.586" x2="124.77" y2="434.941" stroke="black" stroke-width="4"/>
<line x1="90" y1="91" x2="90" y2="401" stroke="black" stroke-width="4"/>
<rect x="538" y="570" width="20" height="50" fill="black"/>
<rect x="533" y="235" width="50" height="50" fill="black"/>
<rect x="304" y="449" width="60" height="50" fill="black"/>
<rect x="131" y="241" width="50" height="50" fill="black"/>
<rect x="114" y="485" width="20" height="50" fill="black"/>
<rect x="620" y="41" width="20" height="50" fill="black"/>
<rect x="560" y="41" width="20" height="50" fill="black"/>
<rect x="500" y="41" width="20" height="50" fill="black"/>
<rect x="440" y="41" width="20" height="50" fill="black"/>
<rect x="380" y="41" width="20" height="50" fill="black"/>
<rect x="320" y="41" width="20" height="50" fill="black"/>
<rect x="260" y="41" width="20" height="50" fill="black"/>
<rect x="200" y="41" width="20" height="50" fill="black"/>
<rect x="140" y="41" width="20" height="50" fill="black"/>
<rect x="80" y="41" width="20" height="50" fill="black"/>
</svg>
