<svg width="638" height="649" viewBox="0 0 638 649" fill="none" xmlns="http://www.w3.org/2000/svg">
<line x1="507" y1="329" x2="507" y2="529" stroke="black" stroke-width="4"/>
<line x1="570.054" y1="266.414" x2="506.414" y2="330.054" stroke="black" stroke-width="4"/>
<line x1="569" y1="118" x2="569" y2="268" stroke="black" stroke-width="4"/>
<line x1="589.627" y1="98.4142" x2="568.414" y2="119.627" stroke="black" stroke-width="4"/>
<line x1="589" y1="50" x2="589" y2="100" stroke="black" stroke-width="4"/>
<line x1="532" y1="134" x2="532" y2="194" stroke="black" stroke-width="4"/>
<line x1="559.698" y1="107.414" x2="531.414" y2="135.698" stroke="black" stroke-width="4"/>
<path d="M559 58.3333C553.109 58.3333 548.333 63.109 548.333 69C548.333 74.891 553.109 79.6667 559 79.6667C564.891 79.6667 569.667 74.891 569.667 69C569.667 63.109 564.891 58.3333 559 58.3333ZM559 69H557V109H559H561V69H559Z" fill="black"/>
<path d="M488.542 277.671C484.377 273.505 477.623 273.505 473.457 277.671C469.292 281.836 469.292 288.59 473.457 292.756C477.623 296.921 484.377 296.921 488.542 292.756C492.708 288.59 492.708 281.836 488.542 277.671ZM502.213 264L500.799 262.586L479.586 283.799L481 285.213L482.414 286.627L503.627 265.414L502.213 264Z" fill="black"/>
<line x1="502" y1="135" x2="502" y2="265" stroke="black" stroke-width="4"/>
<line x1="529.698" y1="108.414" x2="501.414" y2="136.698" stroke="black" stroke-width="4"/>
<line x1="529" y1="50" x2="529" y2="110" stroke="black" stroke-width="4"/>
<path d="M499 59.3333C493.109 59.3333 488.333 64.109 488.333 70C488.333 75.891 493.109 80.6667 499 80.6667C504.891 80.6667 509.667 75.891 509.667 70C509.667 64.109 504.891 59.3333 499 59.3333ZM499 89.3333C493.109 89.3333 488.333 94.109 488.333 100C488.333 105.891 493.109 110.667 499 110.667C504.891 110.667 509.667 105.891 509.667 100C509.667 94.109 504.891 89.3333 499 89.3333ZM499 70H497V100H499H501V70H499Z" fill="black"/>
<path d="M442 294.333C436.109 294.333 431.333 299.109 431.333 305C431.333 310.891 436.109 315.667 442 315.667C447.891 315.667 452.667 310.891 452.667 305C452.667 299.109 447.891 294.333 442 294.333ZM442 135H440V305H442H444V135H442Z" fill="black"/>
<line x1="469.698" y1="108.414" x2="441.414" y2="136.698" stroke="black" stroke-width="4"/>
<line x1="469" y1="50" x2="469" y2="110" stroke="black" stroke-width="4"/>
<path d="M422 400.333C416.109 400.333 411.333 405.109 411.333 411C411.333 416.891 416.109 421.667 422 421.667C427.891 421.667 432.667 416.891 432.667 411C432.667 405.109 427.891 400.333 422 400.333ZM422 500.333C416.109 500.333 411.333 505.109 411.333 511C411.333 516.891 416.109 521.667 422 521.667C427.891 521.667 432.667 516.891 432.667 511C432.667 505.109 427.891 500.333 422 500.333ZM422 411H420V511H422H424V411H422Z" fill="black"/>
<path d="M437.097 622.097C432.932 626.263 432.932 633.016 437.097 637.182C441.263 641.348 448.016 641.348 452.182 637.182C456.348 633.016 456.348 626.263 452.182 622.097C448.016 617.932 441.263 617.932 437.097 622.097ZM381 566L379.586 567.414L443.225 631.054L444.64 629.64L446.054 628.225L382.414 564.586L381 566Z" fill="black"/>
<line x1="381" y1="387" x2="381" y2="567" stroke="black" stroke-width="4"/>
<path d="M423.898 345.458C419.732 341.292 412.978 341.292 408.813 345.458C404.647 349.623 404.647 356.377 408.813 360.542C412.978 364.708 419.732 364.708 423.898 360.542C428.063 356.377 428.063 349.623 423.898 345.458ZM416.355 353L414.941 351.586L379.586 386.941L381 388.355L382.414 389.77L417.769 354.414L416.355 353Z" fill="black"/>
<path d="M399.955 624.955C395.789 629.121 395.789 635.874 399.955 640.04C404.121 644.206 410.874 644.206 415.04 640.04C419.206 635.874 419.206 629.121 415.04 624.955C410.874 620.789 404.121 620.789 399.955 624.955ZM358 583L356.586 584.414L406.083 633.912L407.497 632.497L408.912 631.083L359.414 581.586L358 583Z" fill="black"/>
<line x1="358" y1="344" x2="358" y2="584" stroke="black" stroke-width="4"/>
<path d="M407.969 295.458C403.803 291.292 397.05 291.292 392.884 295.458C388.718 299.623 388.718 306.377 392.884 310.542C397.05 314.708 403.803 314.708 407.969 310.542C412.135 306.377 412.135 299.623 407.969 295.458ZM400.427 303L399.012 301.586L356.586 344.012L358 345.426L359.414 346.841L401.841 304.414L400.427 303Z" fill="black"/>
<path d="M388.542 239.742C384.377 235.576 377.623 235.576 373.457 239.742C369.292 243.907 369.292 250.661 373.457 254.827C377.623 258.992 384.377 258.992 388.542 254.827C392.708 250.661 392.708 243.907 388.542 239.742ZM409.284 219L407.87 217.586L379.586 245.87L381 247.284L382.414 248.698L410.698 220.414L409.284 219Z" fill="black"/>
<line x1="409" y1="50" x2="409" y2="220" stroke="black" stroke-width="4"/>
<path d="M378 59.3333C372.109 59.3333 367.333 64.109 367.333 70C367.333 75.891 372.109 80.6667 378 80.6667C383.891 80.6667 388.667 75.891 388.667 70C388.667 64.109 383.891 59.3333 378 59.3333ZM378 189.333C372.109 189.333 367.333 194.109 367.333 200C367.333 205.891 372.109 210.667 378 210.667C383.891 210.667 388.667 205.891 388.667 200C388.667 194.109 383.891 189.333 378 189.333ZM378 70H376V200H378H380V70H378Z" fill="black"/>
<path d="M342 627.333C336.109 627.333 331.333 632.109 331.333 638C331.333 643.891 336.109 648.667 342 648.667C347.891 648.667 352.667 643.891 352.667 638C352.667 632.109 347.891 627.333 342 627.333ZM342 588H340V638H342H344V588H342Z" fill="black"/>
<line x1="314.414" y1="560.586" x2="342.698" y2="588.87" stroke="black" stroke-width="4"/>
<line x1="315" y1="352" x2="315" y2="562" stroke="black" stroke-width="4"/>
<line x1="349.769" y1="318.414" x2="314.414" y2="353.77" stroke="black" stroke-width="4"/>
<line x1="349" y1="50" x2="349" y2="320" stroke="black" stroke-width="4"/>
<path d="M301.671 590.671C297.505 594.836 297.505 601.59 301.671 605.756C305.836 609.921 312.59 609.921 316.756 605.756C320.921 601.59 320.921 594.836 316.756 590.671C312.59 586.505 305.836 586.505 301.671 590.671ZM288 577L286.586 578.414L307.799 599.627L309.213 598.213L310.627 596.799L289.414 575.586L288 577Z" fill="black"/>
<line x1="289" y1="348" x2="289" y2="578" stroke="black" stroke-width="4"/>
<line x1="330.841" y1="307.414" x2="288.414" y2="349.841" stroke="black" stroke-width="4"/>
<line x1="330" y1="169" x2="330" y2="309" stroke="black" stroke-width="4"/>
<line x1="288.414" y1="128.586" x2="330.841" y2="171.012" stroke="black" stroke-width="4"/>
<line x1="289" y1="50" x2="289" y2="130" stroke="black" stroke-width="4"/>
<path d="M299.969 295.969C304.135 291.803 304.135 285.049 299.969 280.884C295.803 276.718 289.05 276.718 284.884 280.884C280.718 285.049 280.718 291.803 284.884 295.969C289.05 300.134 295.803 300.134 299.969 295.969ZM292.427 288.426L293.841 287.012L251.414 244.586L250 246L248.586 247.414L291.012 289.84L292.427 288.426Z" fill="black"/>
<path d="M251 156.333C245.109 156.333 240.333 161.109 240.333 167C240.333 172.891 245.109 177.667 251 177.667C256.891 177.667 261.667 172.891 261.667 167C261.667 161.109 256.891 156.333 251 156.333ZM251 167H249V247H251H253V167H251Z" fill="black"/>
<path d="M275.969 331.969C280.135 327.803 280.135 321.049 275.969 316.884C271.803 312.718 265.05 312.718 260.884 316.884C256.718 321.049 256.718 327.803 260.884 331.969C265.05 336.134 271.803 336.134 275.969 331.969ZM268.427 324.426L269.841 323.012L227.414 280.586L226 282L224.586 283.414L267.012 325.84L268.427 324.426Z" fill="black"/>
<line x1="226.986" y1="142.992" x2="226.986" y2="282.992" stroke="black" stroke-width="4"/>
<line x1="247.627" y1="123.414" x2="226.414" y2="144.627" stroke="black" stroke-width="4"/>
<path d="M247 94.3333C241.109 94.3333 236.333 99.109 236.333 105C236.333 110.891 241.109 115.667 247 115.667C252.891 115.667 257.667 110.891 257.667 105C257.667 99.109 252.891 94.3333 247 94.3333ZM247 105H245V125H247H249V105H247Z" fill="black"/>
<path d="M257.542 591.671C253.377 587.505 246.623 587.505 242.457 591.671C238.292 595.836 238.292 602.59 242.457 606.756C246.623 610.921 253.377 610.921 257.542 606.756C261.708 602.59 261.708 595.836 257.542 591.671ZM271.213 578L269.799 576.586L248.586 597.799L250 599.213L251.414 600.627L272.627 579.414L271.213 578Z" fill="black"/>
<line x1="271" y1="409" x2="271" y2="579" stroke="black" stroke-width="4"/>
<line x1="208.414" y1="346.586" x2="272.054" y2="410.225" stroke="black" stroke-width="4"/>
<line x1="209" y1="98" x2="209" y2="348" stroke="black" stroke-width="4"/>
<line x1="229.627" y1="78.4142" x2="208.414" y2="99.6274" stroke="black" stroke-width="4"/>
<line x1="229" y1="50" x2="229" y2="80" stroke="black" stroke-width="4"/>
<path d="M226.957 593.227C222.791 589.061 216.037 589.061 211.872 593.227C207.706 597.393 207.706 604.146 211.872 608.312C216.037 612.477 222.791 612.477 226.957 608.312C231.122 604.146 231.122 597.393 226.957 593.227ZM254.77 565.414L253.355 564L218 599.355L219.414 600.769L220.828 602.184L256.184 566.828L254.77 565.414Z" fill="black"/>
<line x1="254" y1="447" x2="254" y2="567" stroke="black" stroke-width="4"/>
<line x1="155.414" y1="349.586" x2="254.409" y2="448.581" stroke="black" stroke-width="4"/>
<line x1="156" y1="101" x2="156" y2="351" stroke="black" stroke-width="4"/>
<line x1="169.556" y1="88.4142" x2="155.414" y2="102.556" stroke="black" stroke-width="4"/>
<line x1="169" y1="50" x2="169" y2="90" stroke="black" stroke-width="4"/>
<path d="M129 308.333C123.109 308.333 118.333 313.109 118.333 319C118.333 324.891 123.109 329.667 129 329.667C134.891 329.667 139.667 324.891 139.667 319C139.667 313.109 134.891 308.333 129 308.333ZM129 159H127L127 319H129H131V159H129Z" fill="black"/>
<line x1="108.414" y1="138.586" x2="129.627" y2="159.799" stroke="black" stroke-width="4"/>
<line x1="109" y1="50" x2="109" y2="140" stroke="black" stroke-width="4"/>
<path d="M100 286.333C94.109 286.333 89.3333 291.109 89.3333 297C89.3333 302.891 94.109 307.667 100 307.667C105.891 307.667 110.667 302.891 110.667 297C110.667 291.109 105.891 286.333 100 286.333ZM100 157H98L98 297H100H102L102 157H100Z" fill="black"/>
<line x1="79.4142" y1="137.586" x2="100.627" y2="158.799" stroke="black" stroke-width="4"/>
<path d="M80 58.3333C74.109 58.3333 69.3333 63.109 69.3333 69C69.3333 74.891 74.109 79.6667 80 79.6667C85.891 79.6667 90.6667 74.891 90.6667 69C90.6667 63.109 85.891 58.3333 80 58.3333ZM80 69H78V139H80H82V69H80Z" fill="black"/>
<line x1="83" y1="393" x2="83" y2="444" stroke="black" stroke-width="4"/>
<line x1="48.4142" y1="358.586" x2="83.7696" y2="393.941" stroke="black" stroke-width="4"/>
<line x1="49" y1="50" x2="49" y2="360" stroke="black" stroke-width="4"/>
<rect x="497" y="529" width="20" height="50" fill="black"/>
<rect x="492" y="194" width="50" height="50" fill="black"/>
<rect x="263" y="408" width="60" height="50" fill="black"/>
<rect x="90" y="200" width="50" height="50" fill="black"/>
<rect x="73" y="444" width="20" height="50" fill="black"/>
<rect x="579" width="20" height="50" fill="black"/>
<rect x="519" width="20" height="50" fill="black"/>
<rect x="459" width="20" height="50" fill="black"/>
<rect x="399" width="20" height="50" fill="black"/>
<rect x="339" width="20" height="50" fill="black"/>
<rect x="279" width="20" height="50" fill="black"/>
<rect x="219" width="20" height="50" fill="black"/>
<rect x="159" width="20" height="50" fill="black"/>
<rect x="99" width="20" height="50" fill="black"/>
<rect x="39" width="20" height="50" fill="black"/>
</svg>
