<svg width="1080" height="1080" viewBox="0 0 1080 1080" fill="none" xmlns="http://www.w3.org/2000/svg">
<line x1="728" y1="550" x2="728" y2="750" stroke="white" stroke-width="4"/>
<line x1="791.054" y1="487.414" x2="727.414" y2="551.054" stroke="white" stroke-width="4"/>
<line x1="790" y1="339" x2="790" y2="489" stroke="white" stroke-width="4"/>
<line x1="810.627" y1="319.414" x2="789.414" y2="340.627" stroke="white" stroke-width="4"/>
<line x1="810" y1="271" x2="810" y2="321" stroke="white" stroke-width="4"/>
<line x1="753" y1="355" x2="753" y2="415" stroke="white" stroke-width="4"/>
<line x1="780.698" y1="328.414" x2="752.414" y2="356.698" stroke="white" stroke-width="4"/>
<path d="M780 279.333C774.109 279.333 769.333 284.109 769.333 290C769.333 295.891 774.109 300.667 780 300.667C785.891 300.667 790.667 295.891 790.667 290C790.667 284.109 785.891 279.333 780 279.333ZM780 290H778V330H780H782V290H780Z" fill="white"/>
<path d="M709.542 498.671C705.377 494.505 698.623 494.505 694.457 498.671C690.292 502.836 690.292 509.59 694.457 513.756C698.623 517.921 705.377 517.921 709.542 513.756C713.708 509.59 713.708 502.836 709.542 498.671ZM723.213 485L721.799 483.586L700.586 504.799L702 506.213L703.414 507.627L724.627 486.414L723.213 485Z" fill="white"/>
<line x1="723" y1="356" x2="723" y2="486" stroke="white" stroke-width="4"/>
<line x1="750.698" y1="329.414" x2="722.414" y2="357.698" stroke="white" stroke-width="4"/>
<line x1="750" y1="271" x2="750" y2="331" stroke="white" stroke-width="4"/>
<path d="M720 280.333C714.109 280.333 709.333 285.109 709.333 291C709.333 296.891 714.109 301.667 720 301.667C725.891 301.667 730.667 296.891 730.667 291C730.667 285.109 725.891 280.333 720 280.333ZM720 310.333C714.109 310.333 709.333 315.109 709.333 321C709.333 326.891 714.109 331.667 720 331.667C725.891 331.667 730.667 326.891 730.667 321C730.667 315.109 725.891 310.333 720 310.333ZM720 291H718V321H720H722V291H720Z" fill="white"/>
<path d="M663 515.333C657.109 515.333 652.333 520.109 652.333 526C652.333 531.891 657.109 536.667 663 536.667C668.891 536.667 673.667 531.891 673.667 526C673.667 520.109 668.891 515.333 663 515.333ZM663 356H661V526H663H665V356H663Z" fill="white"/>
<line x1="690.698" y1="329.414" x2="662.414" y2="357.698" stroke="white" stroke-width="4"/>
<line x1="690" y1="271" x2="690" y2="331" stroke="white" stroke-width="4"/>
<path d="M643 621.333C637.109 621.333 632.333 626.109 632.333 632C632.333 637.891 637.109 642.667 643 642.667C648.891 642.667 653.667 637.891 653.667 632C653.667 626.109 648.891 621.333 643 621.333ZM643 721.333C637.109 721.333 632.333 726.109 632.333 732C632.333 737.891 637.109 742.667 643 742.667C648.891 742.667 653.667 737.891 653.667 732C653.667 726.109 648.891 721.333 643 721.333ZM643 632H641V732H643H645V632H643Z" fill="white"/>
<path d="M658.097 843.097C653.932 847.263 653.932 854.016 658.097 858.182C662.263 862.348 669.016 862.348 673.182 858.182C677.348 854.016 677.348 847.263 673.182 843.097C669.016 838.932 662.263 838.932 658.097 843.097ZM602 787L600.586 788.414L664.225 852.054L665.64 850.64L667.054 849.225L603.414 785.586L602 787Z" fill="white"/>
<line x1="602" y1="608" x2="602" y2="788" stroke="white" stroke-width="4"/>
<path d="M644.898 566.458C640.732 562.292 633.978 562.292 629.813 566.458C625.647 570.623 625.647 577.377 629.813 581.542C633.978 585.708 640.732 585.708 644.898 581.542C649.063 577.377 649.063 570.623 644.898 566.458ZM637.355 574L635.941 572.586L600.586 607.941L602 609.355L603.414 610.77L638.769 575.414L637.355 574Z" fill="white"/>
<path d="M620.955 845.955C616.789 850.121 616.789 856.874 620.955 861.04C625.121 865.206 631.874 865.206 636.04 861.04C640.206 856.874 640.206 850.121 636.04 845.955C631.874 841.789 625.121 841.789 620.955 845.955ZM579 804L577.586 805.414L627.083 854.912L628.497 853.497L629.912 852.083L580.414 802.586L579 804Z" fill="white"/>
<line x1="579" y1="565" x2="579" y2="805" stroke="white" stroke-width="4"/>
<path d="M628.969 516.458C624.803 512.292 618.05 512.292 613.884 516.458C609.718 520.623 609.718 527.377 613.884 531.542C618.05 535.708 624.803 535.708 628.969 531.542C633.135 527.377 633.135 520.623 628.969 516.458ZM621.427 524L620.012 522.586L577.586 565.012L579 566.426L580.414 567.841L622.841 525.414L621.427 524Z" fill="white"/>
<path d="M609.542 460.742C605.377 456.576 598.623 456.576 594.457 460.742C590.292 464.907 590.292 471.661 594.457 475.827C598.623 479.992 605.377 479.992 609.542 475.827C613.708 471.661 613.708 464.907 609.542 460.742ZM630.284 440L628.87 438.586L600.586 466.87L602 468.284L603.414 469.698L631.698 441.414L630.284 440Z" fill="white"/>
<line x1="630" y1="271" x2="630" y2="441" stroke="white" stroke-width="4"/>
<path d="M599 280.333C593.109 280.333 588.333 285.109 588.333 291C588.333 296.891 593.109 301.667 599 301.667C604.891 301.667 609.667 296.891 609.667 291C609.667 285.109 604.891 280.333 599 280.333ZM599 410.333C593.109 410.333 588.333 415.109 588.333 421C588.333 426.891 593.109 431.667 599 431.667C604.891 431.667 609.667 426.891 609.667 421C609.667 415.109 604.891 410.333 599 410.333ZM599 291H597V421H599H601V291H599Z" fill="white"/>
<path d="M563 848.333C557.109 848.333 552.333 853.109 552.333 859C552.333 864.891 557.109 869.667 563 869.667C568.891 869.667 573.667 864.891 573.667 859C573.667 853.109 568.891 848.333 563 848.333ZM563 809H561V859H563H565V809H563Z" fill="white"/>
<line x1="535.414" y1="781.586" x2="563.698" y2="809.87" stroke="white" stroke-width="4"/>
<line x1="536" y1="573" x2="536" y2="783" stroke="white" stroke-width="4"/>
<line x1="570.769" y1="539.414" x2="535.414" y2="574.77" stroke="white" stroke-width="4"/>
<line x1="570" y1="271" x2="570" y2="541" stroke="white" stroke-width="4"/>
<path d="M522.671 811.671C518.505 815.836 518.505 822.59 522.671 826.756C526.836 830.921 533.59 830.921 537.756 826.756C541.921 822.59 541.921 815.836 537.756 811.671C533.59 807.505 526.836 807.505 522.671 811.671ZM509 798L507.586 799.414L528.799 820.627L530.213 819.213L531.627 817.799L510.414 796.586L509 798Z" fill="white"/>
<line x1="510" y1="569" x2="510" y2="799" stroke="white" stroke-width="4"/>
<line x1="551.841" y1="528.414" x2="509.414" y2="570.841" stroke="white" stroke-width="4"/>
<line x1="551" y1="390" x2="551" y2="530" stroke="white" stroke-width="4"/>
<line x1="509.414" y1="349.586" x2="551.841" y2="392.012" stroke="white" stroke-width="4"/>
<line x1="510" y1="271" x2="510" y2="351" stroke="white" stroke-width="4"/>
<path d="M520.969 516.969C525.135 512.803 525.135 506.049 520.969 501.884C516.803 497.718 510.05 497.718 505.884 501.884C501.718 506.049 501.718 512.803 505.884 516.969C510.05 521.134 516.803 521.134 520.969 516.969ZM513.427 509.426L514.841 508.012L472.414 465.586L471 467L469.586 468.414L512.012 510.84L513.427 509.426Z" fill="white"/>
<path d="M472 377.333C466.109 377.333 461.333 382.109 461.333 388C461.333 393.891 466.109 398.667 472 398.667C477.891 398.667 482.667 393.891 482.667 388C482.667 382.109 477.891 377.333 472 377.333ZM472 388H470V468H472H474V388H472Z" fill="white"/>
<path d="M496.969 552.969C501.135 548.803 501.135 542.049 496.969 537.884C492.803 533.718 486.05 533.718 481.884 537.884C477.718 542.049 477.718 548.803 481.884 552.969C486.05 557.134 492.803 557.134 496.969 552.969ZM489.427 545.426L490.841 544.012L448.414 501.586L447 503L445.586 504.414L488.012 546.84L489.427 545.426Z" fill="white"/>
<line x1="447.986" y1="363.992" x2="447.986" y2="503.992" stroke="white" stroke-width="4"/>
<line x1="468.627" y1="344.414" x2="447.414" y2="365.627" stroke="white" stroke-width="4"/>
<path d="M468 315.333C462.109 315.333 457.333 320.109 457.333 326C457.333 331.891 462.109 336.667 468 336.667C473.891 336.667 478.667 331.891 478.667 326C478.667 320.109 473.891 315.333 468 315.333ZM468 326H466V346H468H470V326H468Z" fill="white"/>
<path d="M478.542 812.671C474.377 808.505 467.623 808.505 463.457 812.671C459.292 816.836 459.292 823.59 463.457 827.756C467.623 831.921 474.377 831.921 478.542 827.756C482.708 823.59 482.708 816.836 478.542 812.671ZM492.213 799L490.799 797.586L469.586 818.799L471 820.213L472.414 821.627L493.627 800.414L492.213 799Z" fill="white"/>
<line x1="492" y1="630" x2="492" y2="800" stroke="white" stroke-width="4"/>
<line x1="429.414" y1="567.586" x2="493.054" y2="631.225" stroke="white" stroke-width="4"/>
<line x1="430" y1="319" x2="430" y2="569" stroke="white" stroke-width="4"/>
<line x1="450.627" y1="299.414" x2="429.414" y2="320.627" stroke="white" stroke-width="4"/>
<line x1="450" y1="271" x2="450" y2="301" stroke="white" stroke-width="4"/>
<path d="M447.957 814.227C443.791 810.061 437.037 810.061 432.872 814.227C428.706 818.393 428.706 825.146 432.872 829.312C437.037 833.477 443.791 833.477 447.957 829.312C452.122 825.146 452.122 818.393 447.957 814.227ZM475.77 786.414L474.355 785L439 820.355L440.414 821.769L441.828 823.184L477.184 787.828L475.77 786.414Z" fill="white"/>
<line x1="475" y1="668" x2="475" y2="788" stroke="white" stroke-width="4"/>
<line x1="376.414" y1="570.586" x2="475.409" y2="669.581" stroke="white" stroke-width="4"/>
<line x1="377" y1="322" x2="377" y2="572" stroke="white" stroke-width="4"/>
<line x1="390.556" y1="309.414" x2="376.414" y2="323.556" stroke="white" stroke-width="4"/>
<line x1="390" y1="271" x2="390" y2="311" stroke="white" stroke-width="4"/>
<path d="M350 529.333C344.109 529.333 339.333 534.109 339.333 540C339.333 545.891 344.109 550.667 350 550.667C355.891 550.667 360.667 545.891 360.667 540C360.667 534.109 355.891 529.333 350 529.333ZM350 380H348V540H350H352V380H350Z" fill="white"/>
<line x1="329.414" y1="359.586" x2="350.627" y2="380.799" stroke="white" stroke-width="4"/>
<line x1="330" y1="271" x2="330" y2="361" stroke="white" stroke-width="4"/>
<path d="M321 507.333C315.109 507.333 310.333 512.109 310.333 518C310.333 523.891 315.109 528.667 321 528.667C326.891 528.667 331.667 523.891 331.667 518C331.667 512.109 326.891 507.333 321 507.333ZM321 378H319L319 518H321H323L323 378H321Z" fill="white"/>
<line x1="300.414" y1="358.586" x2="321.627" y2="379.799" stroke="white" stroke-width="4"/>
<path d="M301 279.333C295.109 279.333 290.333 284.109 290.333 290C290.333 295.891 295.109 300.667 301 300.667C306.891 300.667 311.667 295.891 311.667 290C311.667 284.109 306.891 279.333 301 279.333ZM301 290H299V360H301H303V290H301Z" fill="white"/>
<line x1="304" y1="614" x2="304" y2="665" stroke="white" stroke-width="4"/>
<line x1="269.414" y1="579.586" x2="304.77" y2="614.941" stroke="white" stroke-width="4"/>
<line x1="270" y1="271" x2="270" y2="581" stroke="white" stroke-width="4"/>
<rect x="718" y="750" width="20" height="50" fill="white"/>
<rect x="713" y="415" width="50" height="50" fill="white"/>
<rect x="484" y="629" width="60" height="50" fill="white"/>
<rect x="311" y="421" width="50" height="50" fill="white"/>
<rect x="294" y="665" width="20" height="50" fill="white"/>
<rect x="800" y="221" width="20" height="50" fill="white"/>
<rect x="740" y="221" width="20" height="50" fill="white"/>
<rect x="680" y="221" width="20" height="50" fill="white"/>
<rect x="620" y="221" width="20" height="50" fill="white"/>
<rect x="560" y="221" width="20" height="50" fill="white"/>
<rect x="500" y="221" width="20" height="50" fill="white"/>
<rect x="440" y="221" width="20" height="50" fill="white"/>
<rect x="380" y="221" width="20" height="50" fill="white"/>
<rect x="320" y="221" width="20" height="50" fill="white"/>
<rect x="260" y="221" width="20" height="50" fill="white"/>
</svg>
