<svg width="560" height="649" viewBox="0 0 560 649" fill="none" xmlns="http://www.w3.org/2000/svg">
<line x1="468" y1="329" x2="468" y2="529" stroke="white" stroke-width="4"/>
<line x1="531.054" y1="266.414" x2="467.414" y2="330.054" stroke="white" stroke-width="4"/>
<line x1="530" y1="118" x2="530" y2="268" stroke="white" stroke-width="4"/>
<line x1="550.627" y1="98.4142" x2="529.414" y2="119.627" stroke="white" stroke-width="4"/>
<line x1="550" y1="50" x2="550" y2="100" stroke="white" stroke-width="4"/>
<line x1="493" y1="134" x2="493" y2="194" stroke="white" stroke-width="4"/>
<line x1="520.698" y1="107.414" x2="492.414" y2="135.698" stroke="white" stroke-width="4"/>
<path d="M520 58.3333C514.109 58.3333 509.333 63.109 509.333 69C509.333 74.891 514.109 79.6667 520 79.6667C525.891 79.6667 530.667 74.891 530.667 69C530.667 63.109 525.891 58.3333 520 58.3333ZM518 69V109H522V69H518Z" fill="white"/>
<path d="M449.542 277.671C445.377 273.505 438.623 273.505 434.457 277.671C430.292 281.836 430.292 288.59 434.457 292.756C438.623 296.921 445.377 296.921 449.542 292.756C453.708 288.59 453.708 281.836 449.542 277.671ZM461.799 262.586L440.586 283.799L443.414 286.627L464.627 265.414L461.799 262.586Z" fill="white"/>
<line x1="463" y1="135" x2="463" y2="265" stroke="white" stroke-width="4"/>
<line x1="490.698" y1="108.414" x2="462.414" y2="136.698" stroke="white" stroke-width="4"/>
<line x1="490" y1="50" x2="490" y2="110" stroke="white" stroke-width="4"/>
<path d="M460 59.3333C454.109 59.3333 449.333 64.109 449.333 70C449.333 75.891 454.109 80.6667 460 80.6667C465.891 80.6667 470.667 75.891 470.667 70C470.667 64.109 465.891 59.3333 460 59.3333ZM460 89.3333C454.109 89.3333 449.333 94.109 449.333 100C449.333 105.891 454.109 110.667 460 110.667C465.891 110.667 470.667 105.891 470.667 100C470.667 94.109 465.891 89.3333 460 89.3333ZM458 70V100H462V70H458Z" fill="white"/>
<path d="M403 294.333C397.109 294.333 392.333 299.109 392.333 305C392.333 310.891 397.109 315.667 403 315.667C408.891 315.667 413.667 310.891 413.667 305C413.667 299.109 408.891 294.333 403 294.333ZM401 135V305H405V135H401Z" fill="white"/>
<line x1="430.698" y1="108.414" x2="402.414" y2="136.698" stroke="white" stroke-width="4"/>
<line x1="430" y1="50" x2="430" y2="110" stroke="white" stroke-width="4"/>
<path d="M383 400.333C377.109 400.333 372.333 405.109 372.333 411C372.333 416.891 377.109 421.667 383 421.667C388.891 421.667 393.667 416.891 393.667 411C393.667 405.109 388.891 400.333 383 400.333ZM383 500.333C377.109 500.333 372.333 505.109 372.333 511C372.333 516.891 377.109 521.667 383 521.667C388.891 521.667 393.667 516.891 393.667 511C393.667 505.109 388.891 500.333 383 500.333ZM381 411V511H385V411H381Z" fill="white"/>
<path d="M398.097 622.097C393.932 626.263 393.932 633.016 398.097 637.182C402.263 641.348 409.016 641.348 413.182 637.182C417.348 633.016 417.348 626.263 413.182 622.097C409.016 617.932 402.263 617.932 398.097 622.097ZM340.586 567.414L404.225 631.054L407.054 628.225L343.414 564.586L340.586 567.414Z" fill="white"/>
<line x1="342" y1="387" x2="342" y2="567" stroke="white" stroke-width="4"/>
<path d="M384.898 345.458C380.732 341.292 373.978 341.292 369.813 345.458C365.647 349.623 365.647 356.377 369.813 360.542C373.978 364.708 380.732 364.708 384.898 360.542C389.063 356.377 389.063 349.623 384.898 345.458ZM375.941 351.586L340.586 386.941L343.414 389.77L378.769 354.414L375.941 351.586Z" fill="white"/>
<path d="M360.955 624.955C356.789 629.121 356.789 635.874 360.955 640.04C365.121 644.206 371.874 644.206 376.04 640.04C380.206 635.874 380.206 629.121 376.04 624.955C371.874 620.789 365.121 620.789 360.955 624.955ZM317.586 584.414L367.083 633.912L369.912 631.083L320.414 581.586L317.586 584.414Z" fill="white"/>
<line x1="319" y1="344" x2="319" y2="584" stroke="white" stroke-width="4"/>
<path d="M368.969 295.458C364.803 291.292 358.05 291.292 353.884 295.458C349.718 299.623 349.718 306.377 353.884 310.542C358.05 314.708 364.803 314.708 368.969 310.542C373.135 306.377 373.135 299.623 368.969 295.458ZM360.012 301.586L317.586 344.012L320.414 346.841L362.841 304.414L360.012 301.586Z" fill="white"/>
<path d="M349.542 239.742C345.377 235.576 338.623 235.576 334.457 239.742C330.292 243.907 330.292 250.661 334.457 254.827C338.623 258.992 345.377 258.992 349.542 254.827C353.708 250.661 353.708 243.907 349.542 239.742ZM368.87 217.586L340.586 245.87L343.414 248.698L371.698 220.414L368.87 217.586Z" fill="white"/>
<line x1="370" y1="50" x2="370" y2="220" stroke="white" stroke-width="4"/>
<path d="M339 59.3333C333.109 59.3333 328.333 64.109 328.333 70C328.333 75.891 333.109 80.6667 339 80.6667C344.891 80.6667 349.667 75.891 349.667 70C349.667 64.109 344.891 59.3333 339 59.3333ZM339 189.333C333.109 189.333 328.333 194.109 328.333 200C328.333 205.891 333.109 210.667 339 210.667C344.891 210.667 349.667 205.891 349.667 200C349.667 194.109 344.891 189.333 339 189.333ZM337 70V200H341V70H337Z" fill="white"/>
<path d="M303 627.333C297.109 627.333 292.333 632.109 292.333 638C292.333 643.891 297.109 648.667 303 648.667C308.891 648.667 313.667 643.891 313.667 638C313.667 632.109 308.891 627.333 303 627.333ZM301 588V638H305V588H301Z" fill="white"/>
<line x1="275.414" y1="560.586" x2="303.698" y2="588.87" stroke="white" stroke-width="4"/>
<line x1="276" y1="352" x2="276" y2="562" stroke="white" stroke-width="4"/>
<line x1="310.769" y1="318.414" x2="275.414" y2="353.77" stroke="white" stroke-width="4"/>
<line x1="310" y1="50" x2="310" y2="320" stroke="white" stroke-width="4"/>
<path d="M262.671 590.671C258.505 594.836 258.505 601.59 262.671 605.756C266.836 609.921 273.59 609.921 277.756 605.756C281.921 601.59 281.921 594.836 277.756 590.671C273.59 586.505 266.836 586.505 262.671 590.671ZM247.586 578.414L268.799 599.627L271.627 596.799L250.414 575.586L247.586 578.414Z" fill="white"/>
<line x1="250" y1="348" x2="250" y2="578" stroke="white" stroke-width="4"/>
<line x1="291.841" y1="307.414" x2="249.414" y2="349.841" stroke="white" stroke-width="4"/>
<line x1="291" y1="169" x2="291" y2="309" stroke="white" stroke-width="4"/>
<line x1="249.414" y1="128.586" x2="291.841" y2="171.012" stroke="white" stroke-width="4"/>
<line x1="250" y1="50" x2="250" y2="130" stroke="white" stroke-width="4"/>
<path d="M260.969 295.969C265.135 291.803 265.135 285.05 260.969 280.884C256.803 276.718 250.05 276.718 245.884 280.884C241.718 285.05 241.718 291.803 245.884 295.969C250.05 300.134 256.803 300.134 260.969 295.969ZM254.841 287.012L212.414 244.586L209.586 247.414L252.012 289.841L254.841 287.012Z" fill="white"/>
<path d="M212 156.333C206.109 156.333 201.333 161.109 201.333 167C201.333 172.891 206.109 177.667 212 177.667C217.891 177.667 222.667 172.891 222.667 167C222.667 161.109 217.891 156.333 212 156.333ZM210 167V247H214V167H210Z" fill="white"/>
<path d="M236.969 331.969C241.135 327.803 241.135 321.05 236.969 316.884C232.803 312.718 226.05 312.718 221.884 316.884C217.718 321.05 217.718 327.803 221.884 331.969C226.05 336.134 232.803 336.134 236.969 331.969ZM230.841 323.012L188.414 280.586L185.586 283.414L228.012 325.841L230.841 323.012Z" fill="white"/>
<line x1="187.986" y1="142.992" x2="187.986" y2="282.992" stroke="white" stroke-width="4"/>
<line x1="208.627" y1="123.414" x2="187.414" y2="144.627" stroke="white" stroke-width="4"/>
<path d="M208 94.3333C202.109 94.3333 197.333 99.109 197.333 105C197.333 110.891 202.109 115.667 208 115.667C213.891 115.667 218.667 110.891 218.667 105C218.667 99.109 213.891 94.3333 208 94.3333ZM206 105V125H210V105H206Z" fill="white"/>
<path d="M218.542 591.671C214.377 587.505 207.623 587.505 203.457 591.671C199.292 595.836 199.292 602.59 203.457 606.756C207.623 610.921 214.377 610.921 218.542 606.756C222.708 602.59 222.708 595.836 218.542 591.671ZM230.799 576.586L209.586 597.799L212.414 600.627L233.627 579.414L230.799 576.586Z" fill="white"/>
<line x1="232" y1="409" x2="232" y2="579" stroke="white" stroke-width="4"/>
<line x1="169.414" y1="346.586" x2="233.054" y2="410.225" stroke="white" stroke-width="4"/>
<line x1="170" y1="98" x2="170" y2="348" stroke="white" stroke-width="4"/>
<line x1="190.627" y1="78.4142" x2="169.414" y2="99.6274" stroke="white" stroke-width="4"/>
<line x1="190" y1="50" x2="190" y2="80" stroke="white" stroke-width="4"/>
<path d="M187.957 593.227C183.791 589.062 177.037 589.062 172.872 593.227C168.706 597.393 168.706 604.147 172.872 608.312C177.037 612.478 183.791 612.478 187.957 608.312C192.122 604.147 192.122 597.393 187.957 593.227ZM214.355 564L179 599.355L181.828 602.184L217.184 566.829L214.355 564Z" fill="white"/>
<line x1="215" y1="447" x2="215" y2="567" stroke="white" stroke-width="4"/>
<line x1="116.414" y1="349.586" x2="215.409" y2="448.581" stroke="white" stroke-width="4"/>
<line x1="117" y1="101" x2="117" y2="351" stroke="white" stroke-width="4"/>
<line x1="130.556" y1="88.4142" x2="116.414" y2="102.556" stroke="white" stroke-width="4"/>
<line x1="130" y1="50" x2="130" y2="90" stroke="white" stroke-width="4"/>
<path d="M90 308.333C84.109 308.333 79.3333 313.109 79.3333 319C79.3333 324.891 84.109 329.667 90 329.667C95.891 329.667 100.667 324.891 100.667 319C100.667 313.109 95.891 308.333 90 308.333ZM88 159L88 319H92L92 159H88Z" fill="white"/>
<line x1="69.4142" y1="138.586" x2="90.6274" y2="159.799" stroke="white" stroke-width="4"/>
<line x1="70" y1="50" x2="70" y2="140" stroke="white" stroke-width="4"/>
<path d="M61 286.333C55.109 286.333 50.3333 291.109 50.3333 297C50.3333 302.891 55.109 307.667 61 307.667C66.891 307.667 71.6667 302.891 71.6667 297C71.6667 291.109 66.891 286.333 61 286.333ZM59 157L59 297H63L63 157H59Z" fill="white"/>
<line x1="40.4142" y1="137.586" x2="61.6274" y2="158.799" stroke="white" stroke-width="4"/>
<path d="M41 58.3333C35.109 58.3333 30.3333 63.109 30.3333 69C30.3333 74.891 35.109 79.6667 41 79.6667C46.891 79.6667 51.6667 74.891 51.6667 69C51.6667 63.109 46.891 58.3333 41 58.3333ZM39 69L39 139H43L43 69H39Z" fill="white"/>
<line x1="44" y1="393" x2="44" y2="444" stroke="white" stroke-width="4"/>
<line x1="9.41421" y1="358.586" x2="44.7696" y2="393.941" stroke="white" stroke-width="4"/>
<line x1="10" y1="50" x2="10" y2="360" stroke="white" stroke-width="4"/>
<rect x="458" y="529" width="20" height="50" fill="white"/>
<rect x="453" y="194" width="50" height="50" fill="white"/>
<rect x="224" y="408" width="60" height="50" fill="white"/>
<rect x="51" y="200" width="50" height="50" fill="white"/>
<rect x="34" y="444" width="20" height="50" fill="white"/>
<rect x="540" width="20" height="50" fill="white"/>
<rect x="480" width="20" height="50" fill="white"/>
<rect x="420" width="20" height="50" fill="white"/>
<rect x="360" width="20" height="50" fill="white"/>
<rect x="300" width="20" height="50" fill="white"/>
<rect x="240" width="20" height="50" fill="white"/>
<rect x="180" width="20" height="50" fill="white"/>
<rect x="120" width="20" height="50" fill="white"/>
<rect x="60" width="20" height="50" fill="white"/>
<rect width="20" height="50" fill="white"/>
</svg>
