<svg width="1000" height="1000" viewBox="0 0 1000 1000" fill="none" xmlns="http://www.w3.org/2000/svg">
<line x1="261" y1="241" x2="261" y2="311" stroke="black" stroke-width="4"/>
<line x1="281" y1="329" x2="281" y2="469" stroke="black" stroke-width="4"/>
<line x1="428" y1="277" x2="428" y2="297" stroke="black" stroke-width="4"/>
<line x1="407.986" y1="314.992" x2="407.986" y2="454.992" stroke="black" stroke-width="4"/>
<line x1="432" y1="339" x2="432" y2="419" stroke="black" stroke-width="4"/>
<line x1="561" y1="242" x2="561" y2="372" stroke="black" stroke-width="4"/>
<line x1="680" y1="242" x2="680" y2="272" stroke="black" stroke-width="4"/>
<line x1="740" y1="241" x2="740" y2="281" stroke="black" stroke-width="4"/>
<line x1="713" y1="306" x2="713" y2="366" stroke="black" stroke-width="4"/>
<line x1="539" y1="516" x2="539" y2="756" stroke="black" stroke-width="4"/>
<line x1="562" y1="559" x2="562" y2="739" stroke="black" stroke-width="4"/>
<line x1="603" y1="583" x2="603" y2="683" stroke="black" stroke-width="4"/>
<rect x="222" y="174" width="16" height="46" fill="black" stroke="black" stroke-width="4"/>
<rect x="282" y="174" width="16" height="46" fill="black" stroke="black" stroke-width="4"/>
<rect x="762" y="174" width="16" height="46" fill="black" stroke="black" stroke-width="4"/>
<rect x="702" y="174" width="16" height="46" fill="black" stroke="black" stroke-width="4"/>
<rect x="642" y="174" width="16" height="46" fill="black" stroke="black" stroke-width="4"/>
<rect x="582" y="174" width="16" height="46" fill="black" stroke="black" stroke-width="4"/>
<rect x="522" y="174" width="16" height="46" fill="black" stroke="black" stroke-width="4"/>
<rect x="462" y="174" width="16" height="46" fill="black" stroke="black" stroke-width="4"/>
<rect x="402" y="174" width="16" height="46" fill="black" stroke="black" stroke-width="4"/>
<rect x="342" y="174" width="16" height="46" fill="black" stroke="black" stroke-width="4"/>
<rect x="230.828" y="529.707" width="50" height="3" transform="rotate(45 230.828 529.707)" fill="black" stroke="black"/>
<rect x="408.828" y="452.707" width="49" height="3" transform="rotate(45 408.828 452.707)" fill="black" stroke="black"/>
<rect x="261.828" y="308.707" width="29" height="3" transform="rotate(45 261.828 308.707)" fill="black" stroke="black"/>
<rect x="432.828" y="416.707" width="49" height="3" transform="rotate(45 432.828 416.707)" fill="black" stroke="black"/>
<rect x="539.828" y="753.707" width="69" height="3" transform="rotate(45 539.828 753.707)" fill="black" stroke="black"/>
<rect x="562.828" y="736.707" width="89" height="3" transform="rotate(45 562.828 736.707)" fill="black" stroke="black"/>
<rect x="597.477" y="526.828" width="49" height="3" transform="rotate(135 597.477 526.828)" fill="black" stroke="black"/>
<rect x="581.548" y="476.828" width="59" height="3" transform="rotate(135 581.548 476.828)" fill="black" stroke="black"/>
<rect x="429.334" y="296.828" width="29" height="3" transform="rotate(135 429.334 296.828)" fill="black" stroke="black"/>
<rect x="470.828" y="299.707" width="59" height="3" transform="rotate(45 470.828 299.707)" fill="black" stroke="black"/>
<rect x="531.477" y="491.828" width="49" height="3" transform="rotate(135 531.477 491.828)" fill="black" stroke="black"/>
<rect x="591.406" y="391.828" width="39" height="3" transform="rotate(135 591.406 391.828)" fill="black" stroke="black"/>
<rect x="651.406" y="281.828" width="39" height="3" transform="rotate(135 651.406 281.828)" fill="black" stroke="black"/>
<rect x="711.406" y="281.828" width="39" height="3" transform="rotate(135 711.406 281.828)" fill="black" stroke="black"/>
<rect x="741.406" y="280.828" width="39" height="3" transform="rotate(135 741.406 280.828)" fill="black" stroke="black"/>
<rect x="771.335" y="271.828" width="29" height="3" transform="rotate(135 771.335 271.828)" fill="black" stroke="black"/>
<rect x="290.828" y="309.707" width="29" height="3" transform="rotate(45 290.828 309.707)" fill="black" stroke="black"/>
<rect x="351.263" y="261.828" width="19" height="3" transform="rotate(135 351.263 261.828)" fill="black" stroke="black"/>
<rect x="411.334" y="251.828" width="29" height="3" transform="rotate(135 411.334 251.828)" fill="black" stroke="black"/>
<line x1="290" y1="222" x2="290" y2="312" stroke="black" stroke-width="4"/>
<line x1="350" y1="222" x2="350" y2="262" stroke="black" stroke-width="4"/>
<line x1="410" y1="222" x2="410" y2="252" stroke="black" stroke-width="4"/>
<line x1="470" y1="222" x2="470" y2="302" stroke="black" stroke-width="4"/>
<line x1="530" y1="222" x2="530" y2="492" stroke="black" stroke-width="4"/>
<line x1="590" y1="222" x2="590" y2="392" stroke="black" stroke-width="4"/>
<line x1="650" y1="222" x2="650" y2="282" stroke="black" stroke-width="4"/>
<line x1="710" y1="222" x2="710" y2="282" stroke="black" stroke-width="4"/>
<line x1="770" y1="222" x2="770" y2="272" stroke="black" stroke-width="4"/>
<line x1="230" y1="222" x2="230" y2="532" stroke="black" stroke-width="4"/>
<line x1="265" y1="565" x2="265" y2="616" stroke="black" stroke-width="4"/>
<line x1="310" y1="330" x2="310" y2="490" stroke="black" stroke-width="4"/>
<line x1="337" y1="273" x2="337" y2="523" stroke="black" stroke-width="4"/>
<line x1="390" y1="270" x2="390" y2="520" stroke="black" stroke-width="4"/>
<line x1="511" y1="341" x2="511" y2="481" stroke="black" stroke-width="4"/>
<line x1="496" y1="524" x2="496" y2="734" stroke="black" stroke-width="4"/>
<line x1="623" y1="307" x2="623" y2="477" stroke="black" stroke-width="4"/>
<line x1="683" y1="307" x2="683" y2="437" stroke="black" stroke-width="4"/>
<line x1="750" y1="290" x2="750" y2="440" stroke="black" stroke-width="4"/>
<rect x="337.828" y="520.707" width="139" height="3" transform="rotate(45 337.828 520.707)" fill="black" stroke="black"/>
<rect x="470.828" y="747.707" width="29" height="3" transform="rotate(45 470.828 747.707)" fill="black" stroke="black"/>
<rect x="453.334" y="750.828" width="29" height="3" transform="rotate(135 453.334 750.828)" fill="black" stroke="black"/>
<rect x="436.477" y="738.828" width="49" height="3" transform="rotate(135 436.477 738.828)" fill="black" stroke="black"/>
<rect x="390.828" y="517.707" width="89" height="3" transform="rotate(45 390.828 517.707)" fill="black" stroke="black"/>
<rect x="512.548" y="480.828" width="59" height="3" transform="rotate(135 512.548 480.828)" fill="black" stroke="black"/>
<rect x="684.334" y="436.828" width="29" height="3" transform="rotate(135 684.334 436.828)" fill="black" stroke="black"/>
<rect x="751.761" y="439.828" width="89" height="3" transform="rotate(135 751.761 439.828)" fill="black" stroke="black"/>
<rect x="496.828" y="731.707" width="39" height="3" transform="rotate(45 496.828 731.707)" fill="black" stroke="black"/>
<line x1="435" y1="619" x2="435" y2="739" stroke="black" stroke-width="4"/>
<line x1="452" y1="581" x2="452" y2="751" stroke="black" stroke-width="4"/>
<line x1="470" y1="520" x2="470" y2="750" stroke="black" stroke-width="4"/>
<line x1="523" y1="759" x2="523" y2="809" stroke="black" stroke-width="4"/>
<line x1="688" y1="501" x2="688" y2="701" stroke="black" stroke-width="4"/>
<circle cx="394" cy="779" r="8" fill="black" stroke="black" stroke-width="4"/>
<circle cx="523" cy="818" r="8" fill="black" stroke="black" stroke-width="4"/>
<circle cx="594" cy="810" r="8" fill="black" stroke="black" stroke-width="4"/>
<circle cx="632" cy="808" r="8" fill="black" stroke="black" stroke-width="4"/>
<circle cx="603" cy="692" r="8" fill="black" stroke="black" stroke-width="4"/>
<circle cx="603" cy="574" r="8" fill="black" stroke="black" stroke-width="4"/>
<circle cx="603" cy="519" r="8" fill="black" stroke="black" stroke-width="4"/>
<circle cx="587" cy="469" r="8" fill="black" stroke="black" stroke-width="4"/>
<circle cx="556" cy="425" r="8" fill="black" stroke="black" stroke-width="4"/>
<circle cx="561" cy="381" r="8" fill="black" stroke="black" stroke-width="4"/>
<circle cx="449" cy="495" r="8" fill="black" stroke="black" stroke-width="4"/>
<circle cx="473" cy="459" r="8" fill="black" stroke="black" stroke-width="4"/>
<circle cx="310" cy="499" r="8" fill="black" stroke="black" stroke-width="4"/>
<circle cx="281" cy="478" r="8" fill="black" stroke="black" stroke-width="4"/>
<circle cx="623" cy="486" r="8" fill="black" stroke="black" stroke-width="4"/>
<circle cx="656" cy="463" r="8" fill="black" stroke="black" stroke-width="4"/>
<circle cx="740" cy="232" r="8" fill="black" stroke="black" stroke-width="4"/>
<circle cx="680" cy="233" r="8" fill="black" stroke="black" stroke-width="4"/>
<circle cx="680" cy="281" r="8" fill="black" stroke="black" stroke-width="4"/>
<circle cx="561" cy="233" r="8" fill="black" stroke="black" stroke-width="4"/>
<circle cx="428" cy="268" r="8" fill="black" stroke="black" stroke-width="4"/>
<circle cx="432" cy="330" r="8" fill="black" stroke="black" stroke-width="4"/>
<circle cx="261" cy="232" r="8" fill="black" stroke="black" stroke-width="4"/>
<circle cx="425" cy="777" r="8" fill="black" stroke="black" stroke-width="4"/>
<circle cx="497" cy="776" r="8" fill="black" stroke="black" stroke-width="4"/>
<rect x="273" y="374" width="46" height="46" fill="black" stroke="black" stroke-width="4"/>
<rect x="257" y="618" width="16" height="46" fill="black" stroke="black" stroke-width="4"/>
<rect x="680" y="703" width="16" height="46" fill="black" stroke="black" stroke-width="4"/>
<rect x="446" y="582" width="56" height="46" fill="black" stroke="black" stroke-width="4"/>
<rect x="675" y="368" width="46" height="46" fill="black" stroke="black" stroke-width="4"/>
</svg>
